<svg 
 xmlns="http://www.w3.org/2000/svg"
 xmlns:xlink="http://www.w3.org/1999/xlink"
 width="0px" height="0px">
 <clipPath id="header-clip">
<path fill-rule="evenodd"  fill="rgb(216, 216, 216)"
 d="M203.904,4.547 C282.558,18.427 349.725,65.672 418.687,104.129 C464.092,129.449 512.552,142.156 561.570,158.758 C686.191,200.967 813.581,274.957 804.473,410.769 C796.884,523.952 685.764,649.171 550.203,659.566 C503.316,663.159 462.214,650.251 425.321,629.609 C403.169,617.221 381.152,596.697 352.216,596.019 C321.697,595.308 290.528,616.241 264.307,629.708 C225.285,649.765 184.178,670.700 140.196,676.724 C39.285,690.548 9.859,622.409 16.619,533.971 C19.908,490.978 29.397,448.775 35.260,406.119 C43.576,345.624 30.000,293.305 14.438,235.100 C0.578,183.266 -8.725,125.605 15.945,77.912 C43.937,23.795 110.065,-2.133 171.027,0.833 C182.222,1.377 193.168,2.650 203.904,4.547 "/>
</clipPath>
</svg>